<svg width="638" height="137" viewBox="0 0 638 137" fill="none" xmlns="http://www.w3.org/2000/svg">
<g clip-path="url(#clip0)">
<path d="M585.844 33.3351C585.086 33.798 584.246 34.553 583.567 33.3627C582.976 32.3321 583.555 31.5606 584.513 31.0371C598.727 23.2227 612.941 15.4083 627.154 7.60491C627.321 7.51123 627.533 7.48918 627.728 7.43959C627.778 7.53327 627.828 7.63247 627.878 7.72615C627.004 8.26071 626.136 8.78975 625.261 9.3243C612.122 17.3261 598.983 25.3334 585.844 33.3351ZM638 39.6506C638 39.0389 638.011 38.4161 637.939 37.8099C637.705 35.7875 636.936 34.057 635.172 32.8557C631.959 30.6734 629.548 30.7836 625.395 33.4674C625.724 32.8006 625.941 32.3101 626.197 31.8417C628.73 27.2291 631.285 22.6275 633.796 18.0039C635.049 15.6949 636.385 13.4078 637.399 10.9941C638.79 7.68758 637.638 4.21022 634.871 2.00588C633.039 0.545499 630.963 0.137695 628.708 0.137695C603.643 0.143206 578.578 0.143206 553.513 0.143206H551.849V136.895C556.503 136.895 561.018 136.846 565.534 136.923C566.859 136.945 567.627 136.559 568.351 135.407C588.494 103.318 608.676 71.2609 628.858 39.1987C629.114 38.7909 629.431 38.4216 629.721 38.0304C629.827 38.1075 629.933 38.1792 630.038 38.2563C610.63 71.057 591.222 103.852 571.725 136.791H638.005V134.884C638 103.147 638 71.3986 638 39.6506Z" fill="#FF0000"/>
<path d="M402.034 33.3074C401.282 33.7648 400.391 34.7292 399.617 33.4177C398.921 32.2494 399.74 31.544 400.697 31.0204C415.062 23.1234 429.431 15.2318 443.801 7.34578C443.935 7.27414 444.102 7.26311 444.246 7.21903C444.319 7.30169 444.386 7.37884 444.458 7.4615C440.06 10.1453 435.656 12.8346 431.252 15.5184C421.52 21.4481 411.782 27.3888 402.034 33.3074ZM454.145 39.4025C454.14 37.4847 453.923 35.622 452.542 34.0845C449.625 30.8331 446.033 30.5575 441.463 33.5775C441.969 32.6076 442.236 32.062 442.526 31.5274C445.905 25.3332 449.357 19.1776 452.614 12.9283C453.405 11.4073 454.051 9.53359 453.934 7.88033C453.572 2.87647 450.237 0.209211 444.875 0.209211C419.811 0.2037 394.746 0.2037 369.687 0.209211C369.141 0.209211 368.59 0.258809 367.983 0.286363V136.956C372.465 136.956 376.852 136.879 381.239 136.994C382.837 137.038 383.722 136.57 384.591 135.192C404.801 103.02 425.072 70.8805 445.332 38.7412C445.622 38.2838 445.944 37.8539 446.251 37.413C446.356 37.4902 446.462 37.5673 446.568 37.639C427.004 70.6601 407.434 103.676 387.775 136.857H454.156V134.63V65.2264C454.156 56.6184 454.162 48.0104 454.145 39.4025Z" fill="#FF0000"/>
<path d="M270.229 2.12712V0.451819H213.051C227.265 40.0584 241.367 79.3508 255.47 118.643C255.353 118.687 255.236 118.737 255.119 118.781C254.941 118.362 254.751 117.943 254.584 117.519C252.892 113.121 251.199 108.724 249.518 104.321C237.62 73.1842 225.728 42.0478 213.83 10.9114C210.551 2.33102 202.35 -1.82968 194.038 1.12414C188.682 3.0309 183.905 8.12294 183.922 16.4443C184 55.9572 183.961 95.4756 183.961 134.988V136.835H234.302C225.661 94.908 217.037 53.0916 208.419 11.2751C208.931 11.7105 209.115 12.223 209.237 12.7465C215.484 39.893 221.714 67.0451 227.972 94.1916C230.305 104.315 232.415 114.499 235.132 124.518C237.682 133.914 248.466 139.392 258.632 135.754C264.912 133.506 270.329 126.513 270.296 118.158C270.146 79.4831 270.229 40.8023 270.229 2.12712Z" fill="#FF0000"/>
<path d="M478.52 3.08598C482.656 7.18055 482.528 13.9975 478.52 17.9653C474.132 22.3079 467.368 22.3079 463.237 18.2133C459.106 14.1187 459.228 7.0538 463.359 2.95923C467.368 -1.00859 474.383 -1.00859 478.52 3.08598Z" fill="#006326"/>
<path d="M526.294 12.918C525.181 18.0872 524.073 23.2509 522.881 28.4035C522.725 29.0814 522.224 29.8584 521.645 30.1946C521.217 30.4481 520.114 30.2827 519.847 29.9135C519.468 29.401 519.318 28.4476 519.53 27.8304C521.205 22.9368 522.981 18.0762 524.735 13.2101C525.609 10.7798 526.494 8.35502 527.38 5.93025C527.491 5.9578 527.608 5.98535 527.719 6.01291C527.241 8.31645 526.79 10.62 526.294 12.918ZM538.782 9.69416C535.848 6.91118 532.953 4.08411 530.119 1.19642C529.25 0.314677 528.376 -0.00495267 527.157 0.000558191C515.566 0.0281125 492.093 0.000558191 491.943 0.000558191C488.218 0.000558191 484.944 3.13073 484.944 6.81749C484.944 10.5043 487.99 13.5187 491.943 13.5187C492.455 13.5187 492.956 13.4526 493.446 13.3368C493.964 13.2376 494.526 13.0833 495.144 12.8574C504.341 9.43515 513.545 6.01291 522.742 2.59617C523.26 2.40329 523.794 2.2545 524.318 2.08366C523.867 2.63475 523.321 2.91029 522.775 3.18033C502.309 13.2597 481.843 23.3501 461.366 33.3964C460.264 33.9364 459.846 34.5261 459.846 35.7826C459.885 68.8753 459.88 101.963 459.88 135.055C459.88 135.645 459.93 136.235 459.958 136.901C464.601 136.901 469.055 136.901 473.514 136.901C479.11 136.901 482.072 134.802 483.875 129.572C493.836 100.739 503.796 71.9063 513.767 43.0735C513.995 42.4177 514.291 41.7839 514.558 41.1391C514.569 42.2964 514.268 43.3435 513.945 44.385C505.572 71.0576 497.187 97.7302 488.853 124.414C488.413 125.83 488.04 127.379 488.14 128.828C488.48 133.738 492.171 136.879 497.399 136.885C513.094 136.901 528.788 136.89 544.483 136.89C544.978 136.89 545.468 136.841 546.053 136.808C546.086 136.235 546.148 135.75 546.148 135.259C546.153 99.152 546.159 63.0393 546.142 26.9321C546.142 20.1813 543.748 14.406 538.782 9.69416Z" fill="#FF0000"/>
<path d="M362.259 7.42308C362.276 7.24673 362.287 7.07039 362.287 6.88853C362.287 6.70116 362.276 6.5193 362.259 6.34295C361.981 2.99235 359.181 0.347136 355.734 0.286517C355.69 0.286517 355.645 0.281006 355.606 0.281006C355.567 0.281006 282.717 0.281006 282.672 0.281006C282.628 0.281006 282.583 0.286517 282.544 0.286517C279.154 0.352647 276.381 2.90969 276.03 6.18865C276.008 6.4201 275.991 6.65156 275.991 6.89404C275.991 7.13101 276.002 7.36246 276.03 7.58841C276.019 20.6602 275.991 63.3142 275.991 65.0336C275.991 67.9268 278.357 70.2689 281.28 70.2689C283.062 70.2689 284.643 69.3927 285.601 68.0536C286.213 67.1994 318.861 12.956 318.861 12.956C318.861 12.956 279.894 83.7705 279.22 84.6578C277.194 87.3251 275.991 90.6426 275.991 94.2412C275.991 94.4561 275.997 94.6655 276.008 94.8749C276.008 94.9411 276.002 95.0017 275.997 95.0678H275.991V136.95H362.287V69.1668H362.282C362.282 69.1337 362.276 69.1006 362.276 69.0731C362.282 68.9188 362.287 68.77 362.287 68.6157C362.287 68.2905 362.27 67.9654 362.254 67.6403C362.265 67.4143 362.287 67.1884 362.287 66.9624C362.287 64.2401 361.291 61.7491 359.637 59.8314C359.331 59.4732 359.002 59.137 358.652 58.8229C357.995 58.2277 329.996 36.8676 326.46 34.1728C326.221 33.9909 325.982 33.9193 326.093 33.8917C326.65 33.754 326.232 33.9744 326.483 34.1342C329.873 36.2339 354.07 51.2234 354.437 51.4273C355.194 51.8406 356.063 52.0776 356.993 52.0776C357.995 52.0776 358.93 51.7965 359.732 51.3171C361.257 50.3968 362.282 48.7435 362.282 46.8423C362.282 46.6604 362.27 46.4786 362.254 46.2967C362.265 46.1093 362.282 45.9275 362.282 45.7401C362.287 44.412 362.265 20.3461 362.259 7.42308Z" fill="#FF0000"/>
<path d="M170.866 0.165283C147.049 0.165283 123.231 0.165283 99.4132 0.165283C94.2632 0.165283 91.936 2.44678 91.936 7.50575C91.936 48.1869 91.936 88.8681 91.936 129.549C91.936 134.63 94.2465 136.923 99.3798 136.923C123.197 136.923 147.015 136.923 170.833 136.923C176.05 136.923 178.232 134.768 178.232 129.593C178.232 109.253 178.232 88.9122 178.232 68.5716C178.232 48.1759 178.232 27.7802 178.232 7.38451C178.232 2.39167 175.949 0.165283 170.866 0.165283ZM160.065 16.9734C161.034 15.1328 162.264 11.7271 164.491 12.8292C166.718 13.9314 164.118 17.3537 162.821 19.58C143.368 52.9869 106.267 121.074 106.172 121.04C106.027 120.991 147.555 40.8079 160.065 16.9734Z" fill="#FF0000"/>
<path d="M76.9148 27.9896C63.0796 24.6445 49.2277 20.831 35.3869 17.5355C31.9351 16.7144 29.04 15.8878 25.5881 15.0666C26.195 14.8462 26.7128 14.995 27.2361 15.0997C39.1561 17.4308 50.5138 19.7784 62.4393 22.0765C66.5258 22.8645 70.6124 23.8454 74.749 24.1761C79.3589 24.5453 83.0056 22.4236 85.0322 18.2244C86.4853 15.2044 86.2459 7.29633 86.2459 6.17762C86.2459 2.87662 83.5456 0.203851 80.2107 0.203851C78.8411 0.203851 48.1532 0.203851 44.3394 0.203851C42.5523 0.203851 40.921 0.876176 39.6961 1.97835C39.2897 2.34758 18.4952 13.5346 18.4952 13.5346C18.4952 13.5346 18.4618 13.3307 18.4451 13.226C18.4451 13.226 33.8837 3.27891 34.034 3.17972C34.485 2.88764 34.7856 2.38064 34.7856 1.80751C34.7856 0.892708 34.0396 0.154253 33.1154 0.154253C32.7869 0.13772 0 0.187318 0 0.187318V136.763C0.350751 136.796 0.617991 136.84 0.88523 136.84C9.80434 136.84 18.7234 136.912 27.6425 136.813C33.8058 136.741 39.4456 134.928 44.1947 130.932C53.214 123.339 56.1314 111.942 52.0003 100.7C43.2371 76.8544 34.4516 53.0144 25.6772 29.1744C24.9368 27.163 24.2297 25.1405 23.5059 23.1235C23.6284 23.096 23.7509 23.0684 23.8734 23.0353C24.0348 23.4432 24.1963 23.851 24.3577 24.2588C36.6507 55.8856 48.9938 87.4959 61.2089 119.15C63.7031 125.609 67.7507 130.563 73.8916 133.798C77.6664 135.782 81.7139 136.818 86.1791 136.78V134.669V95.1009C86.1791 76.5458 86.1902 58.5418 86.1735 39.9868C86.1679 33.3351 83.2673 29.5216 76.9148 27.9896Z" fill="#FF0000"/>
</g>
<defs>
<clipPath id="clip0">
<rect width="638" height="137" fill="white"/>
</clipPath>
</defs>
</svg>
