<svg width="155" height="249" viewBox="0 0 155 249" fill="none" xmlns="http://www.w3.org/2000/svg">
<path d="M138.15 50.5156C113.31 44.4556 88.42 37.5256 63.56 31.5456C57.36 30.0556 52.16 28.5556 45.96 27.0656C47.05 26.6656 47.98 26.9356 48.92 27.1256C70.33 31.3556 90.73 35.6156 112.15 39.7856C119.49 41.2156 126.83 42.9956 134.26 43.5956C142.54 44.2656 149.09 40.4156 152.73 32.7956C155.34 27.3156 154.91 12.9656 154.91 10.9356C154.91 4.94561 150.06 0.0956144 144.07 0.0956144C141.61 0.0956144 86.49 0.0956144 79.64 0.0956144C76.43 0.0956144 73.5 1.31561 71.3 3.31561C70.57 3.98561 33.22 24.2856 33.22 24.2856C33.22 24.2856 33.16 23.9156 33.13 23.7256C33.13 23.7256 60.86 5.67561 61.13 5.49561C61.94 4.96561 62.48 4.04561 62.48 3.00561C62.48 1.34561 61.14 0.00561437 59.48 0.00561437C58.89 -0.0243856 0 0.0756144 0 0.0756144V247.906C0.63 247.966 1.11 248.046 1.59 248.046C17.61 248.046 33.63 248.176 49.65 247.996C60.72 247.866 70.85 244.576 79.38 237.326C95.58 223.546 100.82 202.866 93.4 182.466C77.66 139.196 61.88 95.9356 46.12 52.6656C44.79 49.0156 43.52 45.3456 42.22 41.6856C42.44 41.6356 42.66 41.5856 42.88 41.5256C43.17 42.2656 43.46 43.0056 43.75 43.7456C65.83 101.136 88 158.496 109.94 215.936C114.42 227.656 121.69 236.646 132.72 242.516C139.5 246.116 146.77 247.996 154.79 247.926V244.096V172.296C154.79 138.626 154.81 105.956 154.78 72.2856C154.77 60.2156 149.56 53.2956 138.15 50.5156Z" fill="#FF0000"/>
</svg>
