<svg width="295" height="232" viewBox="0 0 295 232" fill="none" xmlns="http://www.w3.org/2000/svg">
<path d="M251.888 146.123C251.273 146.501 250.59 147.124 250.038 146.145C249.56 145.299 250.03 144.665 250.805 144.235C262.359 137.819 273.91 131.4 285.467 124.988C285.604 124.91 285.775 124.895 285.931 124.851C285.972 124.928 286.012 125.01 286.053 125.088C285.345 125.526 284.637 125.963 283.928 126.401C273.246 132.972 262.567 139.547 251.888 146.123ZM294.281 151.311C294.281 150.806 294.288 150.298 294.233 149.798C294.044 148.136 293.421 146.716 291.982 145.729C289.372 143.938 287.41 144.027 284.036 146.23C284.303 145.681 284.477 145.281 284.689 144.895C286.746 141.105 288.827 137.33 290.87 133.532C291.889 131.637 292.976 129.757 293.799 127.777C294.93 125.062 293.992 122.206 291.745 120.397C290.254 119.199 288.567 118.861 286.735 118.861C266.36 118.865 245.985 118.865 225.614 118.865H224.26V231.185C228.046 231.185 231.713 231.148 235.384 231.211C236.459 231.229 237.086 230.914 237.672 229.968C254.042 203.616 270.45 177.281 286.858 150.947C287.069 150.614 287.325 150.309 287.559 149.991C287.644 150.054 287.729 150.113 287.814 150.176C272.037 177.115 256.26 204.053 240.416 231.107H294.288V229.542C294.285 203.46 294.285 177.385 294.281 151.311Z" fill="#FF0000"/>
<path d="M105.212 146.097C104.6 146.471 103.877 147.265 103.246 146.189C102.683 145.229 103.346 144.65 104.125 144.22C115.801 137.734 127.481 131.252 139.161 124.773C139.269 124.713 139.402 124.702 139.525 124.669C139.58 124.736 139.64 124.802 139.695 124.869C136.117 127.076 132.543 129.282 128.965 131.485C121.048 136.358 113.135 141.235 105.212 146.097ZM147.571 151.107C147.567 149.535 147.389 148.003 146.27 146.738C143.9 144.068 140.978 143.842 137.263 146.323C137.675 145.526 137.893 145.077 138.127 144.639C140.871 139.555 143.678 134.497 146.325 129.36C146.97 128.114 147.493 126.571 147.397 125.218C147.104 121.105 144.39 118.917 140.033 118.917C119.658 118.913 99.2862 118.913 78.9148 118.917C78.4699 118.917 78.0249 118.958 77.5317 118.98V231.229C81.1729 231.229 84.7437 231.166 88.307 231.263C89.6048 231.296 90.3278 230.914 91.0286 229.783C107.459 203.36 123.933 176.966 140.404 150.565C140.637 150.191 140.904 149.839 141.153 149.475C141.238 149.538 141.327 149.601 141.412 149.664C125.509 176.785 109.602 203.901 93.6205 231.155H147.578V229.327V172.312C147.578 165.244 147.586 158.175 147.571 151.107Z" fill="#FF0000"/>
<path d="M219.654 1.63556V0.259705H173.179C184.733 32.7907 196.194 65.0622 207.656 97.3336C207.559 97.3707 207.463 97.4078 207.37 97.4486C207.225 97.1037 207.07 96.7625 206.936 96.4139C205.561 92.8018 204.185 89.1897 202.817 85.5702C193.146 59.9964 183.48 34.4225 173.809 8.84861C171.143 1.79874 164.477 -1.6168 157.724 0.808564C153.371 2.37355 149.489 6.56046 149.504 13.3915C149.567 45.8447 149.534 78.3015 149.534 110.755V112.268H190.454C183.428 77.8343 176.42 43.4898 169.416 9.14529C169.835 9.50502 169.979 9.92408 170.079 10.3543C175.155 32.6498 180.221 54.9491 185.308 77.2446C187.203 85.5591 188.919 93.9218 191.129 102.155C193.202 109.872 201.968 114.371 210.233 111.381C215.335 109.535 219.74 103.794 219.714 96.9294C219.588 65.166 219.654 33.4026 219.654 1.63556Z" fill="#FF0000"/>
<path d="M167.379 121.276C170.738 124.635 170.638 130.239 167.379 133.499C163.815 137.063 158.317 137.063 154.953 133.703C151.594 130.343 151.694 124.539 155.054 121.175C158.317 117.916 164.019 117.916 167.379 121.276Z" fill="#006326"/>
<path d="M203.484 129.349C202.579 133.592 201.678 137.838 200.71 142.065C200.584 142.622 200.176 143.26 199.705 143.538C199.361 143.745 198.463 143.608 198.241 143.308C197.933 142.889 197.814 142.103 197.985 141.598C199.346 137.578 200.792 133.588 202.216 129.59C202.928 127.595 203.647 125.603 204.363 123.608C204.455 123.63 204.548 123.656 204.637 123.679C204.255 125.57 203.884 127.465 203.484 129.349ZM213.636 126.705C211.252 124.417 208.897 122.095 206.595 119.729C205.89 119.002 205.178 118.743 204.185 118.746C194.763 118.772 175.682 118.746 175.563 118.746C172.534 118.746 169.875 121.316 169.875 124.343C169.875 127.369 172.352 129.85 175.563 129.85C175.982 129.85 176.39 129.794 176.783 129.701C177.202 129.62 177.658 129.494 178.162 129.304C185.641 126.493 193.116 123.682 200.595 120.875C201.018 120.716 201.448 120.593 201.878 120.452C201.511 120.905 201.07 121.131 200.625 121.353C183.987 129.635 167.357 137.919 150.705 146.171C149.808 146.616 149.47 147.098 149.47 148.129C149.504 175.309 149.496 202.484 149.5 229.664C149.5 230.146 149.541 230.632 149.563 231.181C153.338 231.181 156.96 231.181 160.579 231.181C165.129 231.181 167.532 229.456 169.004 225.162C177.102 201.479 185.196 177.797 193.298 154.118C193.483 153.58 193.724 153.057 193.94 152.531C193.951 153.48 193.706 154.344 193.439 155.197C186.635 177.103 179.82 199.01 173.042 220.927C172.682 222.091 172.382 223.36 172.463 224.554C172.741 228.589 175.737 231.166 179.987 231.17C192.746 231.185 205.501 231.177 218.26 231.173C218.66 231.173 219.061 231.133 219.539 231.107C219.569 230.636 219.613 230.235 219.613 229.835C219.617 200.178 219.624 170.521 219.61 140.864C219.617 135.32 217.67 130.573 213.636 126.705Z" fill="#FF0000"/>
<path d="M72.8819 124.84C72.893 124.695 72.9041 124.55 72.9041 124.402C72.9041 124.25 72.893 124.102 72.8819 123.953C72.6557 121.198 70.379 119.032 67.5795 118.976C67.5425 118.976 67.5091 118.973 67.472 118.973H8.18946C8.15238 118.973 8.11901 118.976 8.08193 118.976C5.32693 119.025 3.0725 121.127 2.7907 123.82C2.77216 124.009 2.75732 124.202 2.75732 124.398C2.75732 124.591 2.76845 124.78 2.78699 124.969C2.77957 135.705 2.75732 170.74 2.75732 172.149C2.75732 174.522 4.68175 176.447 7.05854 176.447C8.50834 176.447 9.79129 175.731 10.57 174.63C11.0668 173.929 37.6083 129.375 37.6083 129.375C37.6083 129.375 5.93132 187.536 5.38255 188.266C3.73622 190.458 2.75732 193.184 2.75732 196.136C2.75732 196.31 2.76474 196.484 2.77216 196.658C2.76845 196.71 2.76474 196.762 2.76474 196.814H2.75732V231.214H72.9041V175.546H72.8967C72.8967 175.52 72.893 175.494 72.893 175.468C72.8967 175.342 72.9041 175.22 72.9041 175.094C72.9041 174.823 72.893 174.559 72.8745 174.292C72.8856 174.107 72.9041 173.922 72.9041 173.736C72.9041 171.5 72.0921 169.457 70.7498 167.877C70.5014 167.584 70.2344 167.309 69.9526 167.05C69.4187 166.564 46.6593 149.019 43.7894 146.805C43.5966 146.657 43.4001 146.601 43.4928 146.575C43.9451 146.464 43.604 146.646 43.8116 146.775C46.5666 148.5 66.2373 160.812 66.5339 160.975C67.1494 161.316 67.8576 161.509 68.6104 161.509C69.4261 161.509 70.1862 161.279 70.8351 160.883C72.0773 160.13 72.9079 158.769 72.9079 157.207C72.9079 157.055 72.9004 156.907 72.8856 156.762C72.8967 156.61 72.9079 156.458 72.9079 156.303C72.9041 155.22 72.8856 135.453 72.8819 124.84Z" fill="#FF0000"/>
<path d="M138.888 0.0222168C119.529 0.0222168 100.166 0.0222168 80.8073 0.0222168C76.621 0.0222168 74.73 1.89501 74.73 6.04854C74.73 39.4622 74.73 72.8722 74.73 106.286C74.73 110.462 76.6099 112.338 80.7813 112.338C100.14 112.338 119.503 112.338 138.863 112.338C143.104 112.338 144.877 110.565 144.877 106.319C144.877 89.6124 144.877 72.9055 144.877 56.2024C144.877 39.4511 144.877 22.6997 144.877 5.9447C144.873 1.85422 143.023 0.0222168 138.888 0.0222168ZM130.108 13.829C130.894 12.3159 131.895 9.51971 133.705 10.4246C135.514 11.3295 133.401 14.1405 132.348 15.9688C116.537 43.4118 86.3766 99.3323 86.2988 99.3027C86.1838 99.2582 119.941 33.4025 130.108 13.829Z" fill="#FF0000"/>
<path d="M62.5196 22.8741C51.2771 20.1298 40.0161 16.9961 28.7625 14.2889C25.9556 13.6139 23.601 12.9353 20.7978 12.2603C21.291 12.0786 21.71 12.201 22.1401 12.2863C31.829 14.1999 41.0617 16.1283 50.7543 18.0159C54.0766 18.6649 57.3989 19.466 60.7583 19.7404C64.507 20.0408 67.4697 18.3015 69.116 14.8526C70.2988 12.3716 70.1023 5.87428 70.1023 4.95828C70.1023 2.24736 67.9072 0.0519191 65.1967 0.0519191H36.0375C34.584 0.0519191 33.2602 0.604487 32.2628 1.50936C31.9291 1.81346 15.0283 10.9994 15.0283 10.9994C15.0283 10.9994 15.0023 10.8326 14.9875 10.7473C14.9875 10.7473 27.5389 2.57741 27.6612 2.49583C28.0283 2.25477 28.273 1.83942 28.273 1.36844C28.2693 0.608195 27.6612 0 26.9122 0C26.6527 0 0 0.0445021 0 0.0445021V112.219C0.281803 112.245 0.500572 112.283 0.723048 112.283C7.97207 112.283 15.2248 112.342 22.4738 112.26C27.4833 112.205 32.07 110.714 35.9262 107.428C43.2568 101.19 45.6262 91.8301 42.2705 82.5996C35.1439 63.0113 28.0024 43.4303 20.872 23.8457C20.2713 22.1954 19.6966 20.534 19.107 18.8763C19.2071 18.8541 19.3072 18.8281 19.4074 18.8058C19.5371 19.1396 19.6706 19.4734 19.8004 19.8109C29.797 45.7852 39.827 71.7485 49.7569 97.7452C51.7814 103.052 55.074 107.12 60.0649 109.776C63.1314 111.407 66.4203 112.257 70.0504 112.223V110.491V77.9899C70.0504 62.748 70.0578 47.9621 70.0467 32.7202C70.0393 27.265 67.6847 24.135 62.5196 22.8741Z" fill="#FF0000"/>
<path d="M223.663 45.2659V68.6814H283.294C289.761 68.6814 295 63.4413 295 56.9736C295 50.506 289.757 45.2659 283.294 45.2659H223.663Z" fill="#FF0000"/>
</svg>
